<?xml version="1.0" encoding="utf-8"?>
<!-- Generator: Adobe Illustrator 22.0.0, SVG Export Plug-In . SVG Version: 6.00 Build 0)  -->
<svg version="1.1" id="图层_1" xmlns="http://www.w3.org/2000/svg" xmlns:xlink="http://www.w3.org/1999/xlink" x="0px" y="0px"
	 viewBox="0 0 1109.9 317.8" style="enable-background:new 0 0 1109.9 317.8;" xml:space="preserve">
<style type="text/css">
	.st0{fill:#FFFFFF;}
</style>
<g>
	<g>
		<path class="st0" d="M443.3,208.1c0,0-34.1,0-39.4,0c-5.4,0-12.1,0.1-17.4,2.8c-5.3,2.7-8.6,8-8.6,13.8c0,5.8,3.6,10.3,7.3,12.5
			c3.7,2.2,8.8,3.2,12.6,3.2s14.8,0,18.9,0c4,0,6.6,0.8,8.5,1.8c1.9,1.1,2.9,3,2.9,5.2c0,2.2-1,3.9-3,5.1c-2.1,1.3-5.8,1.5-9.1,1.5
			c-3.3,0-37.9,0-37.9,0v9.9c0,0,27.2,0,41.8,0c14.6,0,25.7-3.3,25.7-16.4c0-13.1-11-17.2-25.1-17.2s-11.7,0-16,0
			s-10.4-0.5-10.4-6.3c0-5.8,5.7-6.1,10.1-6.1c4.4,0,33.2,0,33.2,0L443.3,208.1z"/>
		<polygon class="st0" points="466.6,264 448,264 479,208.1 497.5,208.1 528.5,264 509.9,264 488.1,221.7 477.9,240.4 491.7,240.4
			497.2,251.2 473.9,251.2 		"/>
		<rect x="536.3" y="208.1" class="st0" width="17" height="55.9"/>
		<path class="st0" d="M597.4,208.1c7.9,0,26.2,0,26.2,0l-6.1,10c0,0-6.2,0-18.2,0s-20.7,3.3-20.7,17s6,19,20.5,19s22.8,0,22.8,0
			v9.9c0,0-24.6,0-31.6,0c-7,0-29-2-29-27.7C561.1,210.5,582.3,208.1,597.4,208.1z"/>
		<polygon class="st0" points="732.9,208.1 726.9,208.1 723.3,208.1 703.5,240.4 683.6,208.1 680.1,208.1 674,208.1 665,208.1
			665,264 680.1,264 680.1,226.4 696.2,254.1 710.7,254.1 726.9,226.4 726.9,264 742,264 742,208.1 		"/>
		<polygon class="st0" points="900.2,208.3 834.1,208.3 834.1,218 858.7,218 858.7,264 875.7,264 875.7,218 894.1,218 		"/>
		<path class="st0" d="M793.5,207c-18.7,0-37.1,5.8-37.1,29.2c0,23.4,21.2,28.9,37.1,28.9c15.8,0,37.1-5.5,37.1-28.9
			C830.6,212.8,812.2,207,793.5,207z M793.5,255.3L793.5,255.3c-13.8,0-20.3-6.3-20.3-19.5s6.8-19,20.3-19h0
			c13.6,0,20.3,5.9,20.3,19S807.3,255.3,793.5,255.3z"/>
		<path class="st0" d="M939.8,207c-18.7,0-37.1,5.8-37.1,29.2c0,23.4,21.2,28.9,37.1,28.9c15.8,0,37.1-5.5,37.1-28.9
			C976.9,212.8,958.5,207,939.8,207z M939.8,255.3L939.8,255.3c-13.8,0-20.3-6.3-20.3-19.5s6.8-19,20.3-19h0
			c13.6,0,20.3,5.9,20.3,19S953.6,255.3,939.8,255.3z"/>
		<path class="st0" d="M986.5,208.1c0,0,30.7,0,42.3,0s20.4,4.3,20.4,16.8c0,14.1-12.9,15.9-12.9,15.9l17.6,23.3h-16.5l-17.2-23.6
			h-19.9V264h-13.7v-33.5c0,0,30.6,0,35.9,0c5.2,0,10.7-1.5,10.7-6.6c0-5.1-5.7-5.8-11.6-5.8c-5.9,0-34.9,0-34.9,0V208.1z"/>
	</g>
	<g>
		<polygon class="st0" points="465.9,107.2 534.8,107.2 534.8,90.8 465.9,90.8 465.9,58.9 440.7,58.9 440.7,162.9 377.8,162.9
			377.8,179.3 547.2,179.3 547.2,162.9 465.9,162.9 		"/>
		<rect x="610.7" y="92" class="st0" width="93.2" height="15.2"/>
		<path class="st0" d="M710.6,80.3V65.9h-55.5c1.2-2.1,2.5-4.4,3.9-7h-26.7c-5.6,10.7-9.3,13.7-21.6,13.7v13
			c15.5,0,24.7-0.8,31.9-5.3H710.6z"/>
		<path class="st0" d="M703.5,135.5c0-12.3,0-17.8,0-17.8h-92.8v15.6h70.5c0,20.6,6.7,32.5,15.3,39.1c8.6,6.6,20.8,6.9,20.8,6.9V163
			C706,157.9,703.5,149.3,703.5,135.5z"/>
		<path class="st0" d="M590.1,85.7c6.3,0,7.5,0,10.6,0V72.6c-2.8,0-2.6,0-4.3,0c-3.1,0-4.9-0.7-6.1-3.1c-1.2-2.4-4.3-10.5-4.3-10.5
			h-18.6c0,0,4.8,15.6,6.6,18.9C575.8,81.2,578.9,85.7,590.1,85.7z"/>
		<path class="st0" d="M585.9,119.6c6.3,0,11.7,0,14.8,0v-13.2c-2.8,0-6.8,0-8.5,0c-3.1,0-4.9-0.7-6.1-3.1
			c-1.2-2.4-4.3-10.5-4.3-10.5h-18.6c0,0,4.8,15.6,6.6,18.9C571.6,115,574.7,119.6,585.9,119.6z"/>
		<path class="st0" d="M573.4,158.6c-1.8,4-4.9,4.3-8,4.3c-1.1,0-1.6,0-1.9,0v16.4l11.2,0c9.7-0.5,15.5-7.1,18.3-15.4
			c2.8-8.3,9.4-30.6,9.4-30.6h-19.6C582.8,133.3,575.8,153.5,573.4,158.6z"/>
		<path class="st0" d="M827.4,128.5h55.2V119h-55.2v-6.9h55.2v-8.7h-55.2V96h55.2v-8.7h-55.2v-6.9h55.2V67.3h-55.2v-8.4H802v8.4
			h-21.9c1.5-2.4,3-5.2,4.7-8.4h-26.7c-5.6,10.7-9.3,13.7-21.6,13.7v13c2.2,0,4.3,0,6.3-0.1l0.1,42.9H802v6.9h-65.5v15.2h37.9
			c-6.1,3.4-15.3,8.3-18.4,9.6c-4.7,1.9-7.8,2.6-11.8,2.6c-4,0-7.8,0-7.8,0v16.4c0,0,5.3,0,12.3,0c7,0,10.2,0,17.5-3.6
			c7-3.5,28.7-17.5,35.7-22V179h25.4v-21.4c9.4,6,24.2,15.4,29.7,18.1c7.3,3.6,10.5,3.6,17.5,3.6c7,0,12.3,0,12.3,0v-16.4
			c0,0-3.8,0-7.8,0c-4,0-7-0.7-11.8-2.6c-3.1-1.2-12.2-6.2-18.4-9.6h37.9v-15.2h-59.5V128.5z M802,103.4h-38.4V96H802V103.4z
			 M768.3,80.4H802v6.9h-38.4v-4.6C765.3,82.1,766.8,81.3,768.3,80.4z M763.6,119v-6.9H802v6.9H763.6z"/>
		<path class="st0" d="M907.9,58.9v120.4c0,0,113.7,0,125.3,0c11.6,0,20.6-5.1,20.6-21.2c0-10.6,0-99.2,0-99.2H907.9z M1031.7,155.7
			c0,4.6-3.5,7.3-7.7,7.3c-4.2,0-95.2,0-95.2,0V75h102.9C1031.7,75,1031.7,152,1031.7,155.7z"/>
		<path class="st0" d="M995.2,137.1c0,6.2-4.7,7.2-8.6,7.2s-12.2,0-12.2,0v12.5c0,0,4.1,0,17.2,0c13.1,0,21.5-6.1,21.5-17.9
			c0-6.3,0-22.7,0-36.6h11.7V89.5h-11.7c0-5.5,0-9.2,0-9.2h-17.9c0,0,0,3.7,0,9.2H937v12.7h58.1
			C995.2,116.7,995.2,133.6,995.2,137.1z"/>
		<path class="st0" d="M958.9,107.3c0,0-5.9,22.1-8.1,28.7c-2.2,6.6-5.2,9.1-8.5,9.1c-3.2,0-3.4,0-3.4,0v11.6h7.8
			c13.5,0,18.5-5.6,21.2-14.2c2.7-8.5,10.2-35.3,10.2-35.3H958.9z"/>
	</g>
</g>
<g>
	<g>
		<path class="st0" d="M94.4,195.4h180.3c0.2-0.6,0.4-1.2,0.6-1.8c0.4-1,0.7-2,1-3.1H92.8c0.3,1,0.7,2.1,1,3.1
			C94,194.2,94.2,194.8,94.4,195.4z"/>
		<path class="st0" d="M116.3,170.4c-1.7,0.7-5.1,1.1-10.3,1.1H69c0.3,3,0.7,6.2,1.3,9.4l38.9,0c5.4,0,9.5-0.1,12.2-0.5
			c5.5-0.7,9.6-2.9,12.4-6.5c2-2.5,3-5.4,3-8.6c0-2.9-0.7-5.6-2.2-8.2c-1.9-3.2-5.4-5.4-10.4-6.6c-2.8-0.7-7.1-1.1-12.9-1.1H98.3
			c-4.2,0-7.1-0.3-8.9-0.9c-2.7-0.8-4-2.5-4-5.1c0-3,1.6-4.8,4.8-5.4c1.6-0.3,4.7-0.4,9.4-0.5H131l4.9-9.4H97.5
			c-4.2,0-7.3,0.1-9.4,0.2c-6.2,0.5-10.7,2.3-13.6,5.2c-2.9,3.1-4.3,6.4-4.3,10.1c0,2.4,0.6,4.6,1.9,6.6c1.2,2.1,2.9,3.8,5.1,5.1
			c3.5,2.2,9.3,3.2,17.3,3.2h13.4c3.6,0,6.2,0.4,7.8,1c2.9,1.2,4.3,3,4.3,5.6C120,167.6,118.8,169.3,116.3,170.4z"/>
		<polygon class="st0" points="228.3,128.1 217,128.1 217,134.7 217,180.9 232.4,180.9 232.4,128.1 		"/>
		<path class="st0" d="M257.1,130.3c-4.6,1.5-8.3,3.8-11,7c-3.8,4.4-5.6,10.2-5.6,17.3c0,5.9,1.2,10.9,3.7,14.9
			c3.7,6,10.1,9.6,19,10.9c2.5,0.4,6.2,0.6,11,0.6l24.1,0c0.6-3,1-6.1,1.3-9.4h-21.9c-6.2,0-10.7-0.8-13.6-2.5
			c-4.1-2.4-6.5-7.2-6.5-15c0-5.8,1.7-10.2,4.4-12.4c3.2-2.7,8.2-4,15.1-4H297c-0.6-3.2-1.6-6.3-2.4-9.4l-19.7,0
			C267.7,128.1,261.7,128.9,257.1,130.3z"/>
		<polygon class="st0" points="194.5,180.6 212.3,180.6 193.8,148 182.6,128.3 165.1,128.3 135.4,180.6 137.3,180.6 153.2,180.6
			159.5,168.5 164.1,168.5 172.2,168.5 182.7,168.5 177.9,159.2 174.4,159.2 172.2,159.2 169.1,159.2 164.4,159.2 173.9,140.9
			182.2,156.9 192.7,177.2 192.7,177.2 		"/>
		<path class="st0" d="M60.9,189.3C50.8,142.1,64.8,91.1,104.1,58c54.3-45.6,134.6-39.6,181.6,12.7h7
			c-50.3-60-139.6-67.8-199.5-17.4C53,87.1,36.2,138.6,44.8,187c0.1,0.7,0.2,1.2,0.3,1.8c0.1,0.4,0.2,0.7,0.5,1
			c0.2,0.3,0.6,0.4,0.8,0.5c0.4,0.1,1.1,0.3,1.4,0.4c2.4,0.7,7.2,1.9,9.6,2.5c0.9,0.2,1.4,0.3,2.2,0.4c0.7,0.1,1.6,0.1,1.8-0.1
			c0.2-0.2,0.1-0.8,0-1.6C61.3,191,61.2,190.4,60.9,189.3z"/>
		<path class="st0" d="M323,131c-0.2-0.7-0.2-1.1-0.5-1.8c-0.1-0.3-0.3-0.6-0.6-0.9c-0.2-0.2-0.6-0.4-0.8-0.5
			c-0.3-0.1-1-0.3-1.3-0.4c-3.1-0.8-8.5-2.2-11.9-3c-0.5-0.1-1.6-0.4-2.1-0.5c-0.2,0-0.8-0.2-1,0c-0.2,0.2-0.2,0.4-0.1,0.8
			c0.1,0.5,0.3,1,0.4,1.4c20.6,68.8-18,141.5-86.6,163c-54,16.8-110.6-3-143.1-45.5h-6.9c34.4,49.3,97.8,72.9,158.2,54.1
			C297.9,275.4,339.1,202.4,323,131z"/>
	</g>
</g>
</svg>
