<?xml version="1.0" encoding="utf-8"?>
<!-- Generator: Adobe Illustrator 22.0.0, SVG Export Plug-In . SVG Version: 6.00 Build 0)  -->
<svg version="1.1" id="图层_1" xmlns="http://www.w3.org/2000/svg" xmlns:xlink="http://www.w3.org/1999/xlink" x="0px" y="0px"
	 viewBox="0 0 328 328" style="enable-background:new 0 0 328 328;" xml:space="preserve">
<style type="text/css">
	.st0{fill:#0066FF;}
</style>
<g>
	<g>
		<path class="st0" d="M73.6,197.6h180.3c0.2-0.6,0.4-1.2,0.6-1.8c0.4-1,0.7-2,1-3.1H72c0.3,1,0.7,2.1,1,3.1
			C73.2,196.4,73.4,197,73.6,197.6z"/>
		<path class="st0" d="M95.5,172.6c-1.7,0.7-5.1,1.1-10.3,1.1h-37c0.3,3,0.7,6.2,1.3,9.4h38.9c5.4,0,9.5-0.1,12.2-0.5
			c5.5-0.7,9.6-2.9,12.4-6.5c2-2.5,3-5.4,3-8.6c0-2.9-0.7-5.6-2.2-8.2c-1.9-3.2-5.4-5.4-10.4-6.6c-2.8-0.7-7.1-1.1-12.9-1.1h-13
			c-4.2,0-7.1-0.3-8.9-0.9c-2.7-0.8-4-2.5-4-5.1c0-3,1.6-4.8,4.8-5.4c1.6-0.3,4.7-0.4,9.4-0.5h31.4l4.9-9.4H76.7
			c-4.2,0-7.3,0.1-9.4,0.2c-6.2,0.5-10.7,2.3-13.6,5.2c-2.9,3.1-4.3,6.4-4.3,10.1c0,2.4,0.6,4.6,1.9,6.6c1.2,2.1,2.9,3.8,5.1,5.1
			c3.5,2.2,9.3,3.2,17.3,3.2h13.4c3.6,0,6.2,0.4,7.8,1c2.9,1.2,4.3,3,4.3,5.6C99.2,169.8,98,171.5,95.5,172.6z"/>
		<polygon class="st0" points="207.5,130.3 196.2,130.3 196.2,136.9 196.2,183.1 211.6,183.1 211.6,130.3 		"/>
		<path class="st0" d="M236.3,132.5c-4.6,1.5-8.3,3.8-11,7c-3.8,4.4-5.6,10.2-5.6,17.3c0,5.9,1.2,10.9,3.7,14.9
			c3.7,6,10.1,9.6,19,10.9c2.5,0.4,6.2,0.6,11,0.6h24.1c0.6-3,1-6.1,1.3-9.4h-21.9c-6.2,0-10.7-0.8-13.6-2.5
			c-4.1-2.4-6.5-7.2-6.5-15c0-5.8,1.7-10.2,4.4-12.4c3.2-2.7,8.2-4,15.1-4h19.9c-0.6-3.2-1.6-6.3-2.4-9.4h-19.7
			C246.9,130.3,240.9,131.1,236.3,132.5z"/>
		<polygon class="st0" points="173.7,182.8 191.5,182.8 173,150.2 161.8,130.5 144.3,130.5 114.6,182.8 116.5,182.8 132.4,182.8 
			138.7,170.7 143.3,170.7 151.4,170.7 161.9,170.7 157.1,161.4 153.6,161.4 151.4,161.4 148.3,161.4 143.6,161.4 153.1,143.1 
			161.4,159.1 171.9,179.4 171.9,179.4 		"/>
		<path class="st0" d="M40.1,191.5C30,144.3,44,93.3,83.3,60.2c54.3-45.6,134.6-39.6,181.6,12.7h7c-50.3-60-139.6-67.8-199.5-17.4
			c-40.2,33.8-57,85.3-48.4,133.7c0.1,0.7,0.2,1.2,0.3,1.8c0.1,0.4,0.2,0.7,0.5,1c0.2,0.3,0.6,0.4,0.8,0.5c0.4,0.1,1.1,0.3,1.4,0.4
			c2.4,0.7,7.2,1.9,9.6,2.5c0.9,0.2,1.4,0.3,2.2,0.4c0.7,0.1,1.6,0.1,1.8-0.1c0.2-0.2,0.1-0.8,0-1.6
			C40.5,193.2,40.4,192.6,40.1,191.5z"/>
		<path class="st0" d="M302.2,133.2c-0.2-0.7-0.2-1.1-0.5-1.8c-0.1-0.3-0.3-0.6-0.6-0.9c-0.2-0.2-0.6-0.4-0.8-0.5
			c-0.3-0.1-1-0.3-1.3-0.4c-3.1-0.8-8.5-2.2-11.9-3c-0.5-0.1-1.6-0.4-2.1-0.5c-0.2,0-0.8-0.2-1,0s-0.2,0.4-0.1,0.8
			c0.1,0.5,0.3,1,0.4,1.4c20.6,68.8-18,141.5-86.6,163c-54,16.8-110.6-3-143.1-45.5h-6.9c34.4,49.3,97.8,72.9,158.2,54.1
			C277.1,277.6,318.3,204.6,302.2,133.2z"/>
	</g>
</g>
</svg>
