<?xml version="1.0" encoding="utf-8"?>
<!-- Generator: Adobe Illustrator 22.0.0, SVG Export Plug-In . SVG Version: 6.00 Build 0)  -->
<svg version="1.1" id="图层_1" xmlns="http://www.w3.org/2000/svg" xmlns:xlink="http://www.w3.org/1999/xlink" x="0px" y="0px"
	 viewBox="0 0 709.7 317.8" style="enable-background:new 0 0 709.7 317.8;" xml:space="preserve">
<style type="text/css">
	.st0{fill:#FFFFFF;}
</style>
<g>
	<g>
		<path class="st0" d="M81.8,208.1c0,0-34.1,0-39.4,0c-5.4,0-12.1,0.1-17.4,2.8s-8.6,8-8.6,13.8s3.6,10.3,7.3,12.5
			c3.7,2.2,8.8,3.2,12.6,3.2s14.8,0,18.9,0c4,0,6.6,0.8,8.5,1.8c1.9,1.1,2.9,3,2.9,5.2s-1,3.9-3,5.1c-2.1,1.3-5.8,1.5-9.1,1.5
			c-3.3,0-37.9,0-37.9,0v9.9c0,0,27.2,0,41.8,0c14.6,0,25.7-3.3,25.7-16.4s-11-17.2-25.1-17.2s-11.7,0-16,0s-10.4-0.5-10.4-6.3
			s5.7-6.1,10.1-6.1s33.2,0,33.2,0L81.8,208.1z"/>
		<polygon class="st0" points="105.1,264 86.5,264 117.5,208.1 136,208.1 167,264 148.4,264 126.6,221.7 116.4,240.4 130.2,240.4
			135.7,251.2 112.4,251.2 		"/>
		<rect x="174.8" y="208.1" class="st0" width="17" height="55.9"/>
		<path class="st0" d="M235.9,208.1c7.9,0,26.2,0,26.2,0l-6.1,10c0,0-6.2,0-18.2,0s-20.7,3.3-20.7,17s6,19,20.5,19s22.8,0,22.8,0
			v9.9c0,0-24.6,0-31.6,0s-29-2-29-27.7C199.6,210.5,220.8,208.1,235.9,208.1z"/>
		<polygon class="st0" points="371.4,208.1 365.4,208.1 361.8,208.1 342,240.4 322.1,208.1 318.6,208.1 312.5,208.1 303.5,208.1
			303.5,264 318.6,264 318.6,226.4 334.7,254.1 349.2,254.1 365.4,226.4 365.4,264 380.5,264 380.5,208.1 		"/>
		<polygon class="st0" points="538.7,208.3 472.6,208.3 472.6,218 497.2,218 497.2,264 514.2,264 514.2,218 532.6,218 		"/>
		<path class="st0" d="M432,207c-18.7,0-37.1,5.8-37.1,29.2s21.2,28.9,37.1,28.9c15.8,0,37.1-5.5,37.1-28.9S450.7,207,432,207z
			 M432,255.3L432,255.3c-13.8,0-20.3-6.3-20.3-19.5s6.8-19,20.3-19l0,0c13.6,0,20.3,5.9,20.3,19S445.8,255.3,432,255.3z"/>
		<path class="st0" d="M578.3,207c-18.7,0-37.1,5.8-37.1,29.2s21.2,28.9,37.1,28.9c15.8,0,37.1-5.5,37.1-28.9
			C615.4,212.8,597,207,578.3,207z M578.3,255.3L578.3,255.3c-13.8,0-20.3-6.3-20.3-19.5s6.8-19,20.3-19l0,0
			c13.6,0,20.3,5.9,20.3,19S592.1,255.3,578.3,255.3z"/>
		<path class="st0" d="M625,208.1c0,0,30.7,0,42.3,0c11.6,0,20.4,4.3,20.4,16.8c0,14.1-12.9,15.9-12.9,15.9l17.6,23.3h-16.5
			l-17.2-23.6h-19.9V264h-13.7v-33.5c0,0,30.6,0,35.9,0c5.2,0,10.7-1.5,10.7-6.6s-5.7-5.8-11.6-5.8s-34.9,0-34.9,0v-10H625z"/>
	</g>
	<g>
		<polygon class="st0" points="104.4,107.2 173.3,107.2 173.3,90.8 104.4,90.8 104.4,58.9 79.2,58.9 79.2,162.9 16.3,162.9
			16.3,179.3 185.7,179.3 185.7,162.9 104.4,162.9 		"/>
		<rect x="249.2" y="92" class="st0" width="93.2" height="15.2"/>
		<path class="st0" d="M349.1,80.3V65.9h-55.5c1.2-2.1,2.5-4.4,3.9-7h-26.7c-5.6,10.7-9.3,13.7-21.6,13.7v13
			c15.5,0,24.7-0.8,31.9-5.3C281.1,80.3,349.1,80.3,349.1,80.3z"/>
		<path class="st0" d="M342,135.5c0-12.3,0-17.8,0-17.8h-92.8v15.6h70.5c0,20.6,6.7,32.5,15.3,39.1c8.6,6.6,20.8,6.9,20.8,6.9V163
			C344.5,157.9,342,149.3,342,135.5z"/>
		<path class="st0" d="M228.6,85.7c6.3,0,7.5,0,10.6,0V72.6c-2.8,0-2.6,0-4.3,0c-3.1,0-4.9-0.7-6.1-3.1c-1.2-2.4-4.3-10.5-4.3-10.5
			h-18.6c0,0,4.8,15.6,6.6,18.9C214.3,81.2,217.4,85.7,228.6,85.7z"/>
		<path class="st0" d="M224.4,119.6c6.3,0,11.7,0,14.8,0v-13.2c-2.8,0-6.8,0-8.5,0c-3.1,0-4.9-0.7-6.1-3.1
			c-1.2-2.4-4.3-10.5-4.3-10.5h-18.6c0,0,4.8,15.6,6.6,18.9C210.1,115,213.2,119.6,224.4,119.6z"/>
		<path class="st0" d="M211.9,158.6c-1.8,4-4.9,4.3-8,4.3c-1.1,0-1.6,0-1.9,0v16.4h11.2c9.7-0.5,15.5-7.1,18.3-15.4
			c2.8-8.3,9.4-30.6,9.4-30.6h-19.6C221.3,133.3,214.3,153.5,211.9,158.6z"/>
		<path class="st0" d="M465.9,128.5h55.2V119h-55.2v-6.9h55.2v-8.7h-55.2V96h55.2v-8.7h-55.2v-6.9h55.2V67.3h-55.2v-8.4h-25.4v8.4
			h-21.9c1.5-2.4,3-5.2,4.7-8.4h-26.7c-5.6,10.7-9.3,13.7-21.6,13.7v13c2.2,0,4.3,0,6.3-0.1l0.1,42.9h59.1v6.9H375v15.2h37.9
			c-6.1,3.4-15.3,8.3-18.4,9.6c-4.7,1.9-7.8,2.6-11.8,2.6s-7.8,0-7.8,0v16.4c0,0,5.3,0,12.3,0s10.2,0,17.5-3.6
			c7-3.5,28.7-17.5,35.7-22V179h25.4v-21.4c9.4,6,24.2,15.4,29.7,18.1c7.3,3.6,10.5,3.6,17.5,3.6s12.3,0,12.3,0v-16.4
			c0,0-3.8,0-7.8,0s-7-0.7-11.8-2.6c-3.1-1.2-12.2-6.2-18.4-9.6h37.9v-15.2h-59.5v-7H465.9z M440.5,103.4h-38.4V96h38.4V103.4z
			 M406.8,80.4h33.7v6.9h-38.4v-4.6C403.8,82.1,405.3,81.3,406.8,80.4z M402.1,119v-6.9h38.4v6.9H402.1z"/>
		<path class="st0" d="M546.4,58.9v120.4c0,0,113.7,0,125.3,0c11.6,0,20.6-5.1,20.6-21.2c0-10.6,0-99.2,0-99.2
			S546.4,58.9,546.4,58.9z M670.2,155.7c0,4.6-3.5,7.3-7.7,7.3s-95.2,0-95.2,0V75h102.9C670.2,75,670.2,152,670.2,155.7z"/>
		<path class="st0" d="M633.7,137.1c0,6.2-4.7,7.2-8.6,7.2s-12.2,0-12.2,0v12.5c0,0,4.1,0,17.2,0c13.1,0,21.5-6.1,21.5-17.9
			c0-6.3,0-22.7,0-36.6h11.7V89.5h-11.7c0-5.5,0-9.2,0-9.2h-17.9c0,0,0,3.7,0,9.2h-58.2v12.7h58.1
			C633.7,116.7,633.7,133.6,633.7,137.1z"/>
		<path class="st0" d="M597.4,107.3c0,0-5.9,22.1-8.1,28.7c-2.2,6.6-5.2,9.1-8.5,9.1c-3.2,0-3.4,0-3.4,0v11.6h7.8
			c13.5,0,18.5-5.6,21.2-14.2c2.7-8.5,10.2-35.3,10.2-35.3L597.4,107.3L597.4,107.3z"/>
	</g>
</g>
</svg>
